<?xml version="1.0" encoding="UTF-8" standalone="no"?>
<!-- Created with Inkscape (http://www.inkscape.org/) -->

<svg
   xmlns:dc="http://purl.org/dc/elements/1.1/"
   xmlns:cc="http://creativecommons.org/ns#"
   xmlns:rdf="http://www.w3.org/1999/02/22-rdf-syntax-ns#"
   xmlns:svg="http://www.w3.org/2000/svg"
   xmlns="http://www.w3.org/2000/svg"
   xmlns:sodipodi="http://sodipodi.sourceforge.net/DTD/sodipodi-0.dtd"
   xmlns:inkscape="http://www.inkscape.org/namespaces/inkscape"
   width="210mm"
   height="297mm"
   id="svg2"
   version="1.1"
   inkscape:version="0.48.1 "
   sodipodi:docname="vsdvvsdink.svg">
  <defs
     id="defs4" />
  <sodipodi:namedview
     id="base"
     pagecolor="#ffffff"
     bordercolor="#666666"
     borderopacity="1.0"
     inkscape:pageopacity="0.0"
     inkscape:pageshadow="2"
     inkscape:zoom="0.49"
     inkscape:cx="317.51865"
     inkscape:cy="367.68533"
     inkscape:document-units="px"
     inkscape:current-layer="g2995"
     showgrid="false"
     inkscape:window-width="1366"
     inkscape:window-height="706"
     inkscape:window-x="-8"
     inkscape:window-y="-8"
     inkscape:window-maximized="1" />
  <metadata
     id="metadata7">
    <rdf:RDF>
      <cc:Work
         rdf:about="">
        <dc:format>image/svg+xml</dc:format>
        <dc:type
           rdf:resource="http://purl.org/dc/dcmitype/StillImage" />
        <dc:title></dc:title>
      </cc:Work>
    </rdf:RDF>
  </metadata>
  <g
     inkscape:label="Capa 1"
     inkscape:groupmode="layer"
     id="layer1">
    <g
       id="g2995"
       transform="translate(0,11.111111)"
       style="fill:#ff0000">
      <path
         style="fill:#f4d7d7;fill-opacity:1;stroke:#001727;stroke-width:3;stroke-miterlimit:4;stroke-opacity:1"
         d="m 511.11112,574.5844 c -3.58471,107.67613 -8.35637,19.54124 -47.55501,312.67608 -2.90725,21.74097 -6.84656,64.59542 -9.63924,80.38765 -16.69326,47.73037 -67.14677,15.54435 -98.20499,14.46993 -34.23434,1.92612 -72.94046,22.30634 -80.79975,-7.2147 -4.28744,-18.88349 -16.68885,-87.51271 -16.68885,-87.51271 0,0 -55.08591,-199.3426 -71.18625,-301.00069 -3.73093,-85.11047 32.51298,-110.42378 67.39986,-178.15644 38.20736,-74.17933 30.7483,-161.4269 30.7483,-161.4269 20.14747,-8.14993 116.05978,-18.04657 133.20293,2.89619 0,0 -10.99867,42.34916 23.47128,158.53071 13.92376,46.93028 72.82852,58.91243 69.25172,166.35088 z"
         id="path2999"
         inkscape:connector-curvature="0"
         sodipodi:nodetypes="sscccccsssss" />
      <path
         transform="translate(0,-11.111111)"
         style="fill:#d0d8e0;fill-opacity:1;stroke:#001727;stroke-width:3;stroke-miterlimit:4;stroke-opacity:1"
         d="m 254.28351,884.24084 c 20.31334,31.98444 66.09739,41.31157 106.12179,41.92969 38.65666,0.597 92.69972,-5.85146 104.65,-45.73248 -5.60395,43.78212 5.09251,83.52367 -20.05459,116.46394 -22.06089,14.41761 -37.43111,4.06481 -87.72701,-1.74882 -28.78594,-3.32733 -57.60091,19.28503 -78.55509,-0.67193 -11.5888,-11.88109 -14.63292,-72.37395 -24.4351,-110.2404 z"
         id="rect3875"
         inkscape:connector-curvature="0"
         sodipodi:nodetypes="csccscc" />
      <path
         inkscape:connector-curvature="0"
         style="fill:#f4d7d7;fill-opacity:1;stroke:#001727;stroke-width:3.95841002;stroke-miterlimit:4;stroke-opacity:1"
         d="m 420.1854,250.3516 c 0,14.18597 -30.59398,25.68597 -68.33356,25.68597 -37.73957,0 -68.33354,-11.5 -68.33354,-25.68597 0,-14.18596 30.59397,-25.68596 68.33354,-25.68596 37.73958,0 68.33356,11.5 68.33356,25.68596 z"
         id="path2993" />
      <g
         id="g3043"
         transform="matrix(1.1288924,0,0,1,-45.118341,0)"
         style="fill:#f4d7d7">
        <path
           sodipodi:nodetypes="sccsccs"
           inkscape:connector-curvature="0"
           id="path3027"
           d="m 350.00653,220.55347 c -25.76824,0 -46.65369,4.74242 -46.65369,10.57681 1.16652,14.49661 0.95474,4.89555 0,16.8518 0,5.8344 20.88545,16.11459 46.65369,16.11459 25.76824,0 46.65369,-10.28019 46.65369,-16.11459 0.42493,4.46471 -0.95465,-4.89559 0,-16.8518 0,-5.83439 -20.88545,-10.57681 -46.65369,-10.57681 z"
           style="fill:#f4d7d7;fill-opacity:1;stroke:#001727;stroke-width:2.097651;stroke-miterlimit:4;stroke-opacity:1" />
        <path
           id="path3029"
           d="m 396.66406,230.07213 c 0,5.8344 -20.88929,10.56411 -46.65753,10.56411 -25.76824,0 -46.65752,-4.72971 -46.65752,-10.56411 0,-5.8344 20.88928,-10.56411 46.65752,-10.56411 25.76824,0 46.65753,4.72971 46.65753,10.56411 z"
           style="fill:#f4d7d7;fill-opacity:1;stroke:#001727;stroke-width:2.09765099999999990;stroke-miterlimit:4;stroke-opacity:1"
           inkscape:connector-curvature="0" />
      </g>
      <path
         sodipodi:nodetypes="sccsccs"
         inkscape:connector-curvature="0"
         id="path2985"
         d="m 350,176.21065 c -29.98117,0 -54.28125,8.33704 -54.28125,18.59375 1.35724,25.48464 1.11083,8.60624 0,29.625 0,10.25672 24.30008,18.5625 54.28125,18.5625 29.98117,0 54.28125,-8.30578 54.28125,-18.5625 0.4944,7.84884 -1.11073,-8.60632 0,-29.625 0,-10.25671 -24.30008,-18.59375 -54.28125,-18.59375 z"
         style="fill:#55ddff;fill-opacity:1;stroke:#001727;stroke-width:3;stroke-miterlimit:4;stroke-opacity:1" />
      <path
         id="path2990"
         d="m 404.28571,192.94419 c 0,10.25672 -24.30454,18.57143 -54.28571,18.57143 -29.98117,0 -54.28571,-8.31471 -54.28571,-18.57143 0,-10.25671 24.30454,-18.57142 54.28571,-18.57142 29.98117,0 54.28571,8.31471 54.28571,18.57142 z"
         style="fill:#aaeeff;fill-opacity:1;stroke:#001727;stroke-width:3;stroke-miterlimit:4;stroke-opacity:1"
         inkscape:connector-curvature="0" />
      <path
         transform="translate(0,-11.111111)"
         style="fill:#0088aa;fill-opacity:1;stroke:#001727;stroke-width:3;stroke-miterlimit:4;stroke-opacity:1"
         d="m 252.07385,425.90442 c 101.35845,38.85777 125.04031,25.98242 190.39835,4.59986 94.54921,78.7291 65.40111,201.64732 54.36031,257.80225 -99.57508,47.52056 -191.97851,70.85066 -289.11538,4.04987 -17.75972,-88.99836 -49.05506,-135.66699 44.35672,-266.45198 z"
         id="rect3047"
         inkscape:connector-curvature="0"
         sodipodi:nodetypes="ccccc" />
      <text
         xml:space="preserve"
         style="font-size:86.38738251px;font-style:normal;font-weight:normal;line-height:125%;letter-spacing:0px;word-spacing:0px;fill:#f4d7d7;fill-opacity:1;stroke:none;font-family:Sans"
         x="218.54994"
         y="502.34631"
         id="text3050"
         sodipodi:linespacing="125%"
         transform="matrix(0.81116262,-0.02771155,0.04206667,1.2313613,0,0)"><tspan
           sodipodi:role="line"
           id="tspan3052"
           x="218.54994"
           y="502.34631">koka loka</tspan></text>
      <path
         transform="translate(2.1015166,-48.93841)"
         style="fill-opacity:0.2263158;stroke:#001727;stroke-width:3;stroke-miterlimit:4;stroke-opacity:1;fill:#55ddff"
         d="m 462.33364,914.71283 c 0,27.27493 -47.04405,49.38564 -105.07583,49.38564 -58.03178,0 -105.07583,-22.11071 -105.07583,-49.38564 0,-27.27494 47.04405,-49.38564 105.07583,-49.38564 58.03178,0 105.07583,22.1107 105.07583,49.38564 z"
         id="path3090" />
    </g>
  </g>
</svg>
